<svg id="SvgjsSvg1001" width="288" height="288" xmlns="http://www.w3.org/2000/svg" version="1.1" xmlns:xlink="http://www.w3.org/1999/xlink" xmlns:svgjs="http://svgjs.com/svgjs"><defs id="SvgjsDefs1002"></defs><g id="SvgjsG1008"><svg xmlns="http://www.w3.org/2000/svg" xmlns:xlink="http://www.w3.org/1999/xlink" viewBox="0 0 64 64" width="288" height="288"><defs><path id="a" d="M.06 64V.04H64V64z" class="selectable"></path></defs><g fill-rule="evenodd"><mask id="b" fill="#ffffff" class="svgShape colorffffff-3"><use xlink:href="#a" class="selectable"></use></mask><path fill="#ae73bb" d="M64 32c0 17.673-14.327 32-32 32C14.327 64 0 49.673 0 32 0 14.327 14.327 0 32 0c17.673 0 32 14.327 32 32" mask="url(#b)" class="svgShape color73bba3-5 selectable"></path><path fill="#8f6299" d="M48 48H38a2 2 0 0 1-2-2v-5.5a1.5 1.5 0 0 1 1.5-1.5h3.061c1.472 0 1.883-1.01.914-2.245l-7.713-9.829C33.277 26.309 32.639 26 32 26s-1.277.309-1.762.926l-7.713 9.829c-.969 1.235-.558 2.245.914 2.245H26.5a1.5 1.5 0 0 1 1.5 1.5V46a2 2 0 0 1-2 2h-8c-5.523 0-10-4.477-10-10 0-5.009 3.687-9.146 8.492-9.874C18.227 21.165 24.502 16 32 16c8.836 0 16 7.164 16 16a8 8 0 0 1 0 16" class="svgShape color629986-6 selectable"></path><path fill="#fffeff" d="M48 30c0-8.837-7.164-16-16-16-7.498 0-13.773 5.165-15.508 12.126C11.687 26.854 8 30.991 8 36c0 5.523 4.477 10 10 10h8a2 2 0 0 0 2-2v-5.5a1.5 1.5 0 0 0-1.5-1.5h-3.061c-1.472 0-1.883-1.01-.914-2.245l7.713-9.829c.969-1.235 2.555-1.235 3.524 0l7.713 9.829c.969 1.235.558 2.245-.914 2.245H37.5a1.5 1.5 0 0 0-1.5 1.5V44a2 2 0 0 0 2 2h10a8 8 0 0 0 0-16" class="svgShape colorfffffe-7 selectable"></path></g></svg></g></svg>